<svg width="244" height="50" viewBox="0 0 244 50" fill="none" xmlns="http://www.w3.org/2000/svg">
<path d="M31.8129 35.3004C31.7129 35.3004 31.7129 35.3004 31.6129 35.3004C31.5129 35.3004 31.4129 35.3004 31.2129 35.3004C31.0129 35.3004 30.9129 35.3004 30.7129 35.3004C30.5129 35.3004 30.4129 35.3004 30.2129 35.2004C30.1129 35.2004 30.0129 35.1004 29.8129 35.1004C29.7129 35.1004 29.6129 35.0004 29.5129 35.0004C29.3129 34.9004 29.0129 34.8004 28.8129 34.7004C28.6129 34.6004 28.4129 34.5004 28.3129 34.4004C28.1129 34.3004 27.9129 34.1004 27.7129 33.9004L27.6129 33.7004C27.5129 33.6004 27.5129 33.6004 27.4129 33.5004C27.3129 33.4004 27.3129 33.4004 27.2129 33.3004C27.1129 33.2004 27.1129 33.1004 27.0129 33.1004C27.0129 33.1004 27.0129 33.1004 27.0129 33.0004C27.0129 33.0004 27.0129 32.9004 26.9129 32.9004C26.8129 32.8004 26.7129 32.7004 26.7129 32.5004C26.7129 32.4004 26.6129 32.3004 26.6129 32.3004C26.6129 32.2004 26.5129 32.1004 26.5129 32.1004C26.4129 32.0004 26.4129 31.9004 26.3129 31.8004C26.1129 31.4004 26.0129 31.1004 25.9129 30.7004C25.8129 30.3004 25.7129 29.9004 25.7129 29.5004C25.7129 29.3004 25.7129 29.0004 25.7129 28.7004V28.6004C25.7129 28.4004 25.7129 28.2004 25.7129 28.1004C25.7129 27.9004 25.7129 27.7004 25.8129 27.6004C25.8129 27.5004 25.8129 27.4004 25.9129 27.2004C25.9129 27.1004 25.9129 27.0004 26.0129 26.8004V26.7004C26.1129 26.5004 26.1129 26.3004 26.2129 26.1004C26.3129 25.9004 26.3129 25.7004 26.4129 25.6004C26.5129 25.4004 26.6129 25.2004 26.7129 25.1004C26.8129 24.8004 27.0129 24.6004 27.2129 24.4004C27.3129 24.2004 27.5129 24.1004 27.6129 23.9004C27.7129 23.8004 27.8129 23.7004 27.8129 23.7004C27.9129 23.6004 27.9129 23.6004 28.0129 23.5004C28.1129 23.4004 28.2129 23.3004 28.3129 23.3004C28.5129 23.1004 28.7129 23.0004 28.9129 22.8004C29.0129 22.7004 29.1129 22.7004 29.2129 22.6004C29.3129 22.5004 29.4129 22.5004 29.5129 22.4004C28.6129 23.4004 27.9129 24.8004 27.7129 26.3004C27.6129 26.7004 27.6129 27.0004 27.6129 27.4004C27.6129 27.6004 27.6129 27.9004 27.6129 28.1004C27.6129 28.3004 27.6129 28.6004 27.6129 28.8004C27.7129 29.6004 27.8129 30.4004 28.1129 31.0004C28.2129 31.2004 28.2129 31.4004 28.3129 31.5004C28.4129 31.7004 28.4129 31.8004 28.5129 32.0004C29.3129 33.4004 30.5129 34.6004 31.8129 35.3004Z" fill="#45B7E0"/>
<path d="M12.3129 16.4996C11.5129 16.5996 10.7129 16.2996 10.0129 15.7996C9.01288 14.9996 8.3129 13.7996 8.2129 12.3996C8.1129 10.8996 8.4129 9.69962 9.2129 8.79962C9.6129 8.29962 10.1129 7.89961 10.6129 7.59961C10.4129 7.89961 10.1129 8.29962 10.0129 8.69962C9.11288 10.4996 9.31288 12.8996 10.5129 14.6996C10.9129 15.3996 11.6129 15.9996 12.3129 16.4996Z" fill="#28C78E"/>
<path d="M5.51213 48.8996C4.91213 48.7996 4.31215 48.5996 3.81215 48.2996C3.61215 48.1996 3.41214 47.9996 3.11214 47.7996C2.91214 47.5996 2.71214 47.4996 2.61214 47.2996C2.41214 47.0996 2.11212 46.7996 1.91212 46.4996C1.71212 46.1996 1.51212 45.8996 1.41212 45.5996C1.21212 45.2996 1.11213 44.8996 1.01213 44.5996C0.912129 44.2996 0.812148 43.8996 0.812148 43.4996C0.712148 41.8996 1.01213 40.1996 2.01213 38.8996C2.51213 38.2996 3.01214 37.8996 3.61214 37.5996C2.61214 38.8996 1.91213 40.5996 2.01213 42.4996C2.01213 42.6996 2.01213 42.8996 2.01213 43.0996C2.41213 45.6996 3.71213 47.7996 5.51213 48.8996Z" fill="#28C78E"/>
<path d="M13.5123 42.5V42.6C13.5123 42.8 13.5123 43 13.5123 43.2C13.5123 43.4 13.5123 43.6 13.4123 43.7C13.3123 44 13.3123 44.4 13.2123 44.7C13.2123 44.7 13.2123 44.7 13.2123 44.8C13.1123 45 13.1123 45.1 13.0123 45.3C12.9123 45.5 12.9123 45.6 12.8123 45.8C12.7123 45.9 12.6123 46.1 12.6123 46.2C12.5123 46.3 12.4123 46.5 12.3123 46.6C12.2123 46.7 12.2123 46.8 12.1123 46.9C12.0123 47 12.0123 47.1 11.9123 47.2C11.8123 47.3 11.6123 47.5 11.5123 47.6C11.4123 47.7 11.2123 47.8 11.0123 47.9L10.9123 48C10.9123 48 10.8123 48.1 10.7123 48.1C10.6123 48.2 10.4123 48.2 10.3123 48.3C10.2123 48.3 10.1123 48.4 10.0123 48.4C9.9123 48.4 9.7123 48.5 9.6123 48.5C9.5123 48.5 9.31231 48.5 9.21231 48.6C9.11231 48.6 9.1123 48.6 9.0123 48.6H8.91229H8.81232C8.61232 48.6 8.51232 48.6 8.31232 48.6C8.21232 48.6 8.01229 48.6 7.91229 48.5C7.91229 48.5 7.91232 48.5 7.81233 48.5C7.71233 48.5 7.51229 48.4 7.41229 48.4C7.31229 48.3 7.1123 48.3 7.0123 48.2C6.9123 48.1 6.7123 48.1 6.6123 48C6.5123 47.9 6.31231 47.8 6.21231 47.7C6.11231 47.6 6.01229 47.6 5.91229 47.5C5.91229 47.5 5.81233 47.5 5.81233 47.4C5.71233 47.3 5.6123 47.2 5.5123 47.1L5.41229 47C5.31229 46.9 5.31231 46.9 5.21231 46.8C5.21231 46.8 5.21231 46.8 5.21231 46.7C5.11231 46.6 5.01229 46.5 4.91229 46.3C4.81229 46.2 4.81231 46.1 4.71231 46C4.61231 45.8 4.51229 45.6 4.41229 45.4C4.31229 45.3 4.31231 45.2 4.21231 45C4.11231 44.8 4.1123 44.7 4.0123 44.5C4.0123 44.4 4.01229 44.4 3.91229 44.3C3.91229 44.2 3.91232 44.2 3.81232 44.1C3.71232 43.8 3.7123 43.4 3.6123 43.1C3.6123 42.9 3.6123 42.7 3.6123 42.6C3.6123 42.2 3.61231 41.8 3.71231 41.4C3.71231 41.2 3.81232 41 3.81232 40.9C3.81232 40.8 3.81229 40.7 3.91229 40.7C3.91229 40.6 4.0123 40.5 4.0123 40.3C4.0123 40.2 4.1123 40.1 4.1123 40C4.2123 39.8 4.21232 39.7 4.31233 39.5C4.41233 39.4 4.4123 39.3 4.5123 39.2C4.6123 39 4.71229 38.8 4.91229 38.7C4.91229 38.7 4.9123 38.6 5.0123 38.6L5.1123 38.5C5.1123 38.5 5.21231 38.4 5.21231 38.3C5.31231 38.2 5.41229 38.1 5.41229 38.1C5.51229 38 5.6123 37.9 5.6123 37.9L5.71231 37.8L5.81233 37.7C5.91232 37.6 6.0123 37.5 6.1123 37.5C6.2123 37.4 6.3123 37.4 6.5123 37.3H6.6123H6.71231C6.81231 37.3 6.9123 37.2 7.0123 37.2C7.1123 37.2 7.31229 37.1 7.41229 37.1C7.61229 37.1 7.7123 37 7.91229 37C8.01229 37 8.21232 37 8.31232 37C8.51232 37 8.61232 37 8.81232 37C9.01232 37 9.11232 37 9.31232 37.1C9.41232 37.1 9.5123 37.2 9.6123 37.2C9.7123 37.2 9.71232 37.2 9.81232 37.3C9.91232 37.3 10.0123 37.4 10.1123 37.4C10.3123 37.5 10.4123 37.5 10.5123 37.6C10.6123 37.6 10.7123 37.7 10.8123 37.8C10.9123 37.8 11.0123 37.9 11.0123 38C11.2123 38.1 11.4123 38.3 11.5123 38.5C11.6123 38.6 11.7123 38.7 11.7123 38.8C11.9123 39 12.0123 39.2 12.2123 39.4C12.3123 39.5 12.3123 39.6 12.4123 39.7C12.5123 39.8 12.5123 39.9 12.6123 40C12.7123 40.1 12.7123 40.2 12.8123 40.3C12.8123 40.4 12.9123 40.4 12.9123 40.5V40.6C13.0123 40.7 13.0123 40.8 13.0123 40.9C13.0123 41 13.1123 41.1 13.1123 41.3C13.1123 41.5 13.2123 41.7 13.2123 41.9C13.2123 42.1 13.2123 42.2 13.3123 42.4V42.5C13.4123 42.2 13.5123 42.4 13.5123 42.5Z" fill="#45B7E0"/>
<path d="M40.3125 28.0004V28.2004C40.3125 28.4004 40.3125 28.6004 40.3125 28.8004C40.3125 29.0004 40.3124 29.2004 40.2124 29.4004C40.2124 29.4004 40.2124 29.4004 40.2124 29.5004C40.2124 29.6004 40.2125 29.7004 40.1125 29.8004V29.9004C40.1125 30.0004 40.1125 30.0004 40.0125 30.1004C40.0125 30.3004 39.9125 30.4004 39.9125 30.5004C39.8125 30.7004 39.8124 30.9004 39.7124 31.0004C39.6124 31.2004 39.5125 31.4004 39.5125 31.5004C39.4125 31.7004 39.3124 31.8004 39.2124 32.0004C39.1124 32.2004 39.0125 32.3004 38.9125 32.5004C38.8125 32.6004 38.7125 32.8004 38.6125 32.9004L38.5125 33.0004C38.4125 33.1004 38.3124 33.2004 38.2124 33.3004C38.1124 33.4004 38.0125 33.5004 37.8125 33.6004C37.4125 33.9004 36.9125 34.2004 36.4125 34.4004C36.0125 34.5004 35.6124 34.6004 35.2124 34.7004C35.0124 34.7004 34.8124 34.7004 34.7124 34.7004C33.2124 34.7004 31.8125 34.0004 30.8125 32.9004C30.7125 32.8004 30.6125 32.7004 30.5125 32.6004C30.4125 32.5004 30.4125 32.4004 30.3125 32.4004C30.2125 32.3004 30.1125 32.2004 30.1125 32.1004C29.9125 31.8004 29.8125 31.6004 29.6125 31.3004C29.5125 31.1004 29.4125 31.0004 29.4125 30.8004C29.3125 30.6004 29.3124 30.5004 29.2124 30.3004C29.2124 30.1004 29.1125 30.0004 29.1125 29.8004C29.1125 29.6004 29.0125 29.5004 29.0125 29.3004C29.0125 29.1004 28.9125 28.9004 28.9125 28.7004C28.9125 28.5004 28.9125 28.3004 28.9125 28.1004C28.8125 24.6004 31.0125 21.7004 34.0125 21.4004C34.2125 21.4004 34.4125 21.4004 34.5125 21.4004C34.6125 21.4004 34.8125 21.4004 34.9125 21.4004C35.0125 21.4004 35.2125 21.4004 35.3125 21.5004H35.4125C35.5125 21.5004 35.6124 21.5004 35.7124 21.6004C35.9124 21.6004 36.0125 21.7004 36.1125 21.7004C36.2125 21.7004 36.3125 21.8004 36.4125 21.8004C36.4125 21.8004 36.5125 21.8004 36.5125 21.9004C36.6125 21.9004 36.7125 22.0004 36.8125 22.0004C36.9125 22.0004 36.9125 22.0004 36.9125 22.1004C37.0125 22.2004 37.2125 22.3004 37.3125 22.4004C37.4125 22.5004 37.6124 22.6004 37.7124 22.7004C37.8124 22.8004 38.0125 22.9004 38.1125 23.1004C38.2125 23.2004 38.3125 23.3004 38.4125 23.5004C38.7125 23.8004 38.9125 24.2004 39.1125 24.5004C39.2125 24.7004 39.3125 24.8004 39.3125 25.0004C39.3125 25.1004 39.4125 25.1004 39.4125 25.2004C39.6125 25.5004 39.7125 25.9004 39.8125 26.3004C39.9125 26.5004 39.9125 26.7004 39.9125 26.9004C39.9125 27.1004 40.0125 27.3004 40.0125 27.5004C40.3125 27.6004 40.3125 27.8004 40.3125 28.0004Z" fill="#28C78E"/>
<path d="M41.5125 27.2998C41.1125 23.0998 38.1125 19.9998 34.4125 19.9998C34.2125 19.9998 34.0125 19.9998 33.7125 19.9998C33.4125 19.9998 33.2125 20.0998 32.9125 20.0998C30.6125 20.4998 28.0125 21.2998 26.2125 23.4998C26.0125 23.6998 25.9125 23.8998 25.8125 24.0998L18.1125 15.7998C19.4125 14.6998 20.3125 12.9998 20.2125 11.0998C20.2125 10.8998 20.2125 10.7998 20.2125 10.5998C19.9125 7.59979 17.7125 5.2998 15.0125 5.2998C14.9125 5.2998 14.8125 5.2998 14.6125 5.2998C14.5125 5.2998 14.5125 5.2998 14.4125 5.2998C12.4125 5.5998 10.4125 5.99981 8.91249 7.89981C8.01249 8.99981 7.61251 10.4998 7.71251 12.2998C7.91251 13.9998 8.71249 15.4998 9.91249 16.3998C10.7125 16.9998 11.6125 17.2998 12.6125 17.2998C12.8125 17.2998 13.1125 17.2998 13.2125 17.2998C13.3125 17.2998 13.6125 17.2998 13.7125 17.2998L15.9125 16.9998C16.0125 16.9998 16.1125 16.9998 16.2125 16.8998C16.6125 16.7998 16.9125 16.5998 17.3125 16.3998L25.4125 25.0998C24.8125 26.3998 24.6125 27.7998 24.7125 29.3998C24.8125 30.5998 25.2125 31.5998 25.7125 32.5998L14.5125 40.0998C13.7125 37.3998 11.5125 35.5998 9.0125 35.2998C8.9125 35.2998 8.61251 35.2998 8.61251 35.2998C8.41251 35.2998 8.11249 35.2998 7.91249 35.2998C7.61249 35.2998 7.31249 35.3998 6.91249 35.4998C4.91249 35.7998 2.9125 36.4998 1.5125 38.1998C0.4125 39.5998 -0.0875 41.3998 0.0125 43.4998C0.4125 47.0998 3.21249 49.9998 6.41249 49.9998C6.71249 49.9998 7.01251 49.9998 7.11251 49.9998C8.81251 49.8998 9.71252 49.5998 9.81252 49.5998C12.8125 48.8998 14.9125 45.9998 14.8125 42.4998C14.8125 42.2998 14.8125 42.0998 14.8125 41.8998C14.8125 41.6998 14.8125 41.4998 14.7125 41.2998L26.2125 33.5998C27.4125 35.2998 29.3125 36.3998 31.4125 36.3998C31.7125 36.3998 32.0125 36.3998 32.3125 36.3998C32.4125 36.3998 32.7125 36.3998 32.8125 36.2998L35.6125 35.8998C35.7125 35.8998 35.9125 35.8998 36.0125 35.7998C39.4125 35.0998 41.7125 31.7998 41.7125 27.8998C41.5125 27.6998 41.5125 27.4998 41.5125 27.2998ZM10.0125 15.6998C9.9125 15.5998 9.81251 15.4998 9.71251 15.3998C9.51251 15.1998 9.31251 14.9998 9.21251 14.7998C8.71251 14.0998 8.31251 13.1998 8.21251 12.2998C8.11251 10.7998 8.41251 9.5998 9.21251 8.6998C9.31251 8.5998 9.4125 8.49981 9.5125 8.39981C9.6125 8.29981 9.71252 8.19979 9.81252 8.09979C10.0125 7.89979 10.3125 7.69979 10.5125 7.59979C10.3125 7.89979 10.0125 8.2998 9.91249 8.6998C9.01249 10.4998 9.21249 12.8998 10.4125 14.6998C10.6125 15.0998 10.9125 15.4998 11.3125 15.7998C11.7125 16.0998 12.0125 16.3998 12.3125 16.5998C11.5125 16.4998 10.7125 16.2998 10.0125 15.6998ZM17.3125 15.0998C17.0125 15.2998 16.7125 15.4998 16.3125 15.5998C16.1125 15.6998 15.9125 15.6998 15.7125 15.7998H15.6125C15.5125 15.7998 15.5125 15.7998 15.4125 15.7998H15.3125C15.2125 15.7998 15.1125 15.7998 14.9125 15.7998C14.7125 15.7998 14.5125 15.7998 14.3125 15.6998C14.2125 15.6998 14.1125 15.6998 14.0125 15.5998C13.9125 15.5998 13.8125 15.5998 13.7125 15.4998C13.6125 15.4998 13.5125 15.3998 13.4125 15.3998C13.3125 15.3998 13.2125 15.2998 13.1125 15.2998C13.0125 15.2998 12.9125 15.1998 12.8125 15.0998C12.7125 15.0998 12.6125 14.9998 12.5125 14.8998C12.4125 14.7998 12.3125 14.7998 12.3125 14.6998C12.2125 14.5998 12.1125 14.4998 12.0125 14.4998C11.9125 14.3998 11.8125 14.2998 11.7125 14.1998C11.6125 13.9998 11.5125 13.8998 11.4125 13.6998C11.4125 13.6998 11.4125 13.6998 11.3125 13.5998C11.2125 13.3998 11.1125 13.2998 11.0125 13.0998C10.9125 12.7998 10.8125 12.5998 10.7125 12.2998C10.6125 11.9998 10.6125 11.6998 10.5125 11.3998C10.5125 11.2998 10.5125 11.0998 10.5125 10.9998C10.5125 8.59979 12.1125 6.4998 14.3125 6.2998C14.3125 6.2998 14.4125 6.2998 14.5125 6.2998C14.6125 6.2998 14.7125 6.2998 14.8125 6.2998C16.8125 6.2998 18.5125 7.89979 18.9125 10.0998C18.9125 10.2998 18.9125 10.3998 19.0125 10.5998C19.0125 10.6998 19.0125 10.8998 19.0125 10.9998C19.0125 11.1998 19.0125 11.3998 19.0125 11.4998C19.0125 11.5998 19.0125 11.5998 19.0125 11.6998C19.0125 11.8998 19.0125 12.0998 18.9125 12.1998C18.9125 12.2998 18.9125 12.2998 18.9125 12.3998C18.9125 12.4998 18.8125 12.6998 18.8125 12.7998C18.8125 12.7998 18.8125 12.7998 18.8125 12.8998C18.8125 12.9998 18.7125 13.0998 18.7125 13.1998C18.7125 13.1998 18.7125 13.1998 18.7125 13.2998C18.7125 13.3998 18.6125 13.4998 18.5125 13.5998C18.5125 13.6998 18.4125 13.6998 18.4125 13.7998C18.4125 13.8998 18.3125 13.8998 18.3125 13.9998C17.9125 14.5998 17.6125 14.8998 17.3125 15.0998ZM0.812518 43.4998C0.712518 41.8998 1.0125 40.1998 2.0125 38.8998C2.5125 38.3998 3.01251 37.8998 3.61251 37.5998C2.61251 38.8998 2.0125 40.5998 2.0125 42.4998C2.0125 42.6998 2.0125 42.8998 2.0125 43.0998C2.2125 45.5998 3.61249 47.6998 5.41249 48.7998C3.21249 48.4998 1.11252 46.1998 0.812518 43.4998ZM10.5125 47.9998C10.2125 48.1998 9.81249 48.2998 9.41249 48.3998C9.21249 48.3998 9.21249 48.3998 8.91249 48.4998C8.81249 48.4998 8.41249 48.4998 8.41249 48.4998C7.31249 48.4998 6.31249 48.0998 5.41249 47.2998C5.11249 47.0998 4.91251 46.7998 4.61251 46.4998C3.81251 45.5998 3.31251 44.2998 3.21251 42.9998C3.21251 42.7998 3.21251 42.5998 3.21251 42.4998C3.21251 42.0998 3.21252 41.6998 3.31252 41.2998C3.51252 40.0998 4.01252 38.9998 4.81252 38.0998C5.61252 37.1998 6.61251 36.6998 7.71251 36.4998H7.81252C7.91252 36.4998 8.01251 36.4998 8.11251 36.4998C8.51251 36.4998 9.01249 36.5998 9.41249 36.6998C11.1125 37.1998 12.6125 38.7998 13.1125 40.7998C13.2125 41.1998 13.2125 41.4998 13.3125 41.8998V41.9998C13.3125 42.1998 13.3125 42.2998 13.3125 42.4998C13.5125 44.8998 12.3125 47.0998 10.5125 47.9998ZM31.3125 35.2998C29.6125 35.2998 28.1125 34.3998 27.0125 32.8998C26.8125 32.5998 26.6125 32.2998 26.4125 31.9998C26.0125 31.1998 25.7125 30.2998 25.6125 29.3998C25.5125 28.1998 25.6125 27.0998 26.0125 25.9998C26.1125 25.5998 26.3125 25.2998 26.5125 24.9998C26.6125 24.6998 26.8125 24.4998 27.0125 24.1998C27.7125 23.2998 28.5125 22.6998 29.5125 22.1998C28.6125 23.1998 28.0125 24.5998 27.7125 26.0998C27.6125 26.3998 27.6125 26.7998 27.6125 27.0998C27.6125 27.2998 27.6125 27.5998 27.6125 27.7998C27.6125 27.9998 27.6125 28.2998 27.6125 28.4998C27.7125 29.2998 27.8125 29.9998 28.1125 30.6998C28.2125 30.9998 28.4125 31.3998 28.5125 31.6998C29.3125 33.1998 30.4125 34.3998 31.8125 35.0998C31.7125 35.2998 31.5125 35.2998 31.3125 35.2998ZM36.4125 34.3998C36.0125 34.4998 35.6125 34.5998 35.2125 34.6998C35.0125 34.6998 34.8125 34.6998 34.7125 34.6998C33.6125 34.6998 32.6125 34.3998 31.7125 33.6998C30.8125 33.0998 30.1125 32.1998 29.6125 31.1998C29.4125 30.8998 29.3125 30.4998 29.2125 30.1998C29.0125 29.6998 28.9125 29.0998 28.9125 28.4998C28.9125 28.2998 28.9125 28.0998 28.9125 27.8998C28.8125 24.3998 31.0125 21.4998 34.0125 21.0998C34.2125 21.0998 34.4125 21.0998 34.5125 21.0998C34.6125 21.0998 34.8125 21.0998 34.9125 21.0998C37.7125 21.2998 40.1125 23.8998 40.4125 27.1998C40.4125 27.3998 40.4125 27.5998 40.4125 27.7998C40.4125 30.9998 38.7125 33.5998 36.4125 34.3998Z" fill="#1D1D1B"/>
<path d="M19.1129 11.2004C19.1129 11.4004 19.1129 11.6004 19.1129 11.8004C19.1129 11.9004 19.1129 11.9004 19.1129 12.0004C19.1129 12.2004 19.1129 12.4004 19.0129 12.5004C19.0129 12.6004 19.0129 12.6004 19.0129 12.7004C19.0129 12.8004 18.9129 13.0004 18.9129 13.1004C18.9129 13.1004 18.9129 13.1004 18.9129 13.2004C18.9129 13.3004 18.8129 13.4004 18.8129 13.5004C18.8129 13.5004 18.8129 13.5004 18.8129 13.6004C18.8129 13.7004 18.7129 13.8004 18.6129 13.9004C18.6129 14.0004 18.5129 14.0004 18.5129 14.1004C18.5129 14.2004 18.4129 14.2004 18.4129 14.3004C18.2129 14.6004 17.9129 15.0004 17.5129 15.2004C17.2129 15.4004 16.9129 15.6004 16.5129 15.7004C16.3129 15.8004 16.1129 15.8004 15.9129 15.9004H15.8129C15.7129 15.9004 15.7129 15.9004 15.6129 15.9004H15.5129C15.4129 15.9004 15.3129 15.9004 15.1129 15.9004C14.9129 15.9004 14.7129 15.9004 14.5129 15.8004C14.4129 15.8004 14.3129 15.8004 14.2129 15.7004C14.1129 15.7004 14.0129 15.7004 13.9129 15.6004C13.8129 15.6004 13.7129 15.5004 13.6129 15.5004C13.5129 15.5004 13.4129 15.4004 13.3129 15.4004C13.2129 15.4004 13.1129 15.3004 13.0129 15.2004C12.9129 15.2004 12.8129 15.1004 12.7129 15.0004C12.6129 14.9004 12.5129 14.9004 12.5129 14.8004C12.4129 14.7004 12.3129 14.6004 12.2129 14.6004C12.1129 14.5004 12.0129 14.4004 11.9129 14.3004C11.8129 14.1004 11.7129 14.0004 11.6129 13.8004C11.6129 13.8004 11.6129 13.8004 11.5129 13.7004C11.4129 13.5004 11.3129 13.4004 11.2129 13.2004C11.1129 12.9004 11.0129 12.7004 10.9129 12.4004C10.8129 12.1004 10.8129 11.8004 10.7129 11.5004C10.7129 11.4004 10.7129 11.2004 10.7129 11.1004C10.7129 8.70037 12.3129 6.60039 14.5129 6.40039C14.5129 6.40039 14.6129 6.40039 14.7129 6.40039H14.9129C16.9129 6.40039 18.7129 8.00038 19.2129 10.2004C19.2129 10.4004 19.2129 10.5004 19.3129 10.7004C19.1129 10.9004 19.1129 11.1004 19.1129 11.2004Z" fill="#45B7E0"/>
<path d="M82.6123 46.6998H56.3123L56.1123 42.3998L70.4123 20.7998C70.5123 20.6998 70.5123 20.5998 70.5123 20.3998C70.5123 20.3998 70.5123 20.3998 70.5123 20.2998C70.5123 20.1998 70.5123 20.2998 70.5123 20.2998V20.1998C70.5123 20.1998 70.5123 20.0998 70.4123 20.0998L70.3123 19.9998C70.2123 19.9998 70.2123 19.9998 70.1123 19.9998H56.8123L56.6123 13.2998H81.2123L81.4123 17.8998L67.6123 39.1998C67.6123 39.2998 67.5123 39.3998 67.5123 39.4998V39.6998C67.5123 39.9998 67.7123 40.1998 68.0123 40.1998H82.5123L82.6123 46.6998Z" fill="#45B7E0"/>
<path d="M83.3127 39.5996C83.3127 39.2996 83.1127 39.0996 82.8127 39.0996H68.6127L82.2126 18.1996C82.2126 18.0996 82.3127 17.9996 82.3127 17.8996L82.1127 12.5996C82.1127 12.2996 81.9127 12.0996 81.6127 12.0996H56.0127C55.9127 12.0996 55.9127 12.0996 55.8127 12.0996C55.8127 12.0996 55.7126 12.0996 55.7126 12.1996L53.1127 14.3996C53.0127 14.4996 52.9127 14.5996 52.9127 14.7996L53.2126 22.3996C53.2126 22.4996 53.2127 22.5996 53.3127 22.6996L53.4127 22.7996C53.4127 22.7996 53.5127 22.7996 53.5127 22.8996C53.6127 22.8996 53.6126 22.8996 53.7126 22.8996L66.6127 22.6996L52.6127 43.8996C52.5127 43.9996 52.5127 44.0996 52.5127 44.1996V44.2996V49.0996C52.5127 49.2996 52.6126 49.3996 52.7126 49.4996C52.8126 49.5996 52.9127 49.6996 53.1127 49.6996H80.6127C80.7127 49.6996 80.8127 49.6996 80.9127 49.5996L83.6127 47.2996L83.7126 47.1996C83.7126 47.0996 83.8127 47.0996 83.8127 46.9996L83.3127 39.5996ZM81.1127 13.1996L81.3127 17.7996L67.5127 39.0996C67.5127 39.1996 67.4127 39.2996 67.4127 39.3996V39.5996C67.4127 39.8996 67.6127 40.0996 67.9127 40.0996H82.4127L82.6127 46.6996H56.3127L56.1127 42.3996L70.4127 20.7996C70.5127 20.6996 70.5127 20.5996 70.5127 20.3996C70.5127 20.3996 70.5127 20.3996 70.5127 20.2996C70.5127 20.1996 70.5127 20.2996 70.5127 20.2996V20.1996C70.5127 20.1996 70.5127 20.0996 70.4127 20.0996L70.3127 19.9996C70.2127 19.9996 70.2127 19.9996 70.1127 19.9996H56.8127L56.6127 13.2996H81.1127V13.1996ZM53.8127 15.1996L55.5127 13.6996L55.7126 20.0996L54.0127 21.4996L53.8127 15.1996ZM55.0127 22.0996L56.5127 20.7996H68.5127L67.0127 21.7996L55.0127 22.0996ZM67.6127 22.9996L68.1127 22.6996L55.3127 41.9996L54.8127 42.2996L67.6127 22.9996ZM53.3127 44.7996L55.1127 43.2996L55.2126 46.9996L53.2126 48.3996V44.7996H53.3127ZM80.3127 48.9996H54.4127L56.0127 47.6996H81.8127L80.3127 48.9996Z" fill="#1D1D1B"/>
<path d="M68.4127 20.7998L67.0127 21.8998L55.0127 22.0998L56.4127 20.7998H68.4127Z" fill="#28C78E"/>
<path d="M55.3125 46.9998L53.3125 48.3998V44.7998L55.2125 43.2998L55.3125 46.9998Z" fill="#28C78E"/>
<path d="M81.8121 47.7002L80.3121 49.0002H54.4121L56.0121 47.7002H81.8121Z" fill="#28C78E"/>
<path d="M55.8125 20.1002H55.7125L54.0125 21.6002L53.8125 15.2002L55.5125 13.7002L55.8125 20.1002Z" fill="#28C78E"/>
<path d="M68.0125 22.5996L55.3125 41.8996L54.8125 42.2996L67.6125 22.9996L68.0125 22.5996Z" fill="#28C78E"/>
<path d="M117.612 34.7996L116.212 35.9996L108.112 35.7996H108.212L109.512 34.5996H109.612L112.012 34.6996H112.412L117.612 34.7996Z" fill="#28C78E"/>
<path d="M105.112 19.3004H102.912L101.912 15.9004C101.712 15.1004 101.712 15.0004 101.712 14.9004C101.712 14.8004 101.712 14.8004 101.412 13.8004C101.512 13.4004 101.612 12.9004 101.712 12.4004L102.312 9.40039C102.512 9.90039 102.612 10.5004 102.712 11.1004C102.912 11.9004 103.112 12.7004 103.312 13.4004C103.312 13.5004 103.412 13.6004 103.412 13.7004C103.412 13.8004 103.512 13.9004 103.512 14.0004L105.112 19.3004Z" fill="#28C78E"/>
<path d="M108.812 33.9998L107.812 34.7998L107.512 35.0998L107.312 35.2998L107.112 35.3998L105.112 28.7998L106.912 27.2998L108.812 33.9998Z" fill="#28C78E"/>
<path d="M105.812 26.8998L104.412 28.0998L98.8125 27.9998L99.1125 26.7998L105.812 26.8998Z" fill="#28C78E"/>
<path d="M119.412 34.1002L108.812 0.800201C108.712 0.600201 108.613 0.500208 108.312 0.400208L96.6125 0.200195C96.5125 0.200195 96.4125 0.200201 96.3125 0.300201L92.8125 2.7002C92.7125 2.8002 92.6125 2.90018 92.6125 3.00018L83.8125 36.0002C83.8125 36.2002 83.8125 36.4002 84.0125 36.5002C84.1125 36.6002 84.2125 36.6002 84.3125 36.6002L94.5125 36.5002C94.6125 36.5002 94.7125 36.5002 94.8125 36.4002L97.2125 34.2002C97.2125 34.1002 97.3125 34.1002 97.3125 34.0002C97.3125 33.9002 97.3125 33.8002 97.4125 33.8002L98.5125 28.6002L104.112 28.7002L106.312 36.1002C106.413 36.3002 106.512 36.4002 106.612 36.4002C106.612 36.4002 106.712 36.4002 106.812 36.4002L116.312 36.6002C116.413 36.6002 116.512 36.6002 116.612 36.5002L119.112 34.3002C119.212 34.2002 119.312 34.1002 119.312 33.9002C119.413 34.3002 119.412 34.2002 119.412 34.1002ZM93.5125 3.60019L95.8125 2.00018L87.4125 33.6002L85.1125 35.2002L93.5125 3.60019ZM94.3125 35.7002L85.9125 35.8002L88.0125 34.4002L95.7125 34.6002L94.3125 35.7002ZM98.8125 28.0002L99.1125 26.9002L105.812 27.0002L104.412 28.2002L98.8125 28.0002ZM107.513 35.1002L107.312 35.3002L107.112 35.5002L105.112 28.8002L106.912 27.3002L108.812 34.0002L107.812 34.9002L107.513 35.1002ZM116.212 36.0002L108.112 35.8002L108.212 35.7002L109.513 34.6002L111.912 34.7002H112.312L117.513 34.8002L116.212 36.0002ZM112.612 33.7002H109.812L107.612 26.4002C107.612 26.4002 107.613 26.3002 107.513 26.3002L107.412 26.2002C107.412 26.2002 107.312 26.2002 107.312 26.1002C107.312 26.1002 107.212 26.1002 107.112 26.1002L98.6125 26.0002C98.4125 26.0002 98.2125 26.2002 98.2125 26.4002L96.6125 33.7002L88.5125 33.6002L95.8125 6.2002L97.0125 1.60019L108.013 1.8002L118.312 34.1002L112.612 33.7002Z" fill="#1D1D1B"/>
<path d="M95.8123 2L87.4123 33.6H87.3123L85.1123 35.1L93.5123 3.60001L95.8123 2Z" fill="#28C78E"/>
<path d="M95.6121 34.5004L94.3121 35.7004L85.9121 35.8004L87.9121 34.4004L95.6121 34.5004Z" fill="#28C78E"/>
<path d="M108.013 1.49979L97.0127 1.2998L95.8127 5.89981L88.5127 33.2998L96.6127 33.3998L98.2126 26.0998C98.2126 25.8998 98.4127 25.6998 98.6127 25.6998L107.113 25.7998C107.213 25.7998 107.213 25.7998 107.313 25.7998C107.313 25.7998 107.413 25.7998 107.413 25.8998L107.513 25.9998C107.513 25.9998 107.513 26.0998 107.613 26.0998L109.813 33.3998H112.613L118.313 33.4998L108.013 1.49979ZM100.513 13.7998C100.513 13.5998 100.613 13.2998 100.713 13.0998C100.813 12.3998 101.013 11.5998 101.213 10.6998C101.413 9.4998 101.713 8.1998 101.913 7.1998C102.013 6.9998 102.213 6.7998 102.413 6.7998C102.413 6.7998 102.513 6.7998 102.613 6.7998H102.713C102.713 6.7998 102.813 6.79981 102.813 6.89981C102.813 6.89981 102.813 6.99979 102.913 6.99979C102.913 6.99979 102.913 7.09979 103.013 7.09979C103.113 7.49979 103.213 7.89981 103.413 8.39981C103.613 9.19981 103.813 9.9998 104.013 10.6998C104.313 11.6998 104.513 12.7998 104.813 13.5998L106.513 19.5998C106.513 19.5998 106.513 19.5998 106.513 19.6998C106.513 19.7998 106.513 19.8998 106.413 19.9998C106.313 20.0998 106.213 20.1998 106.013 20.1998L99.9127 20.0998C99.8127 20.0998 99.6127 19.9998 99.5127 19.8998C99.4127 19.7998 99.4127 19.5998 99.4127 19.4998L100.513 13.7998Z" fill="#45B7E0"/>
<path d="M106.212 19.7004L104.512 13.7004C104.312 12.9004 104.012 11.8004 103.712 10.8004C103.512 10.0004 103.312 9.20037 103.112 8.50037C103.012 8.00037 102.912 7.60038 102.712 7.20038C102.712 7.20038 102.712 7.10037 102.612 7.10037C102.612 7.10037 102.612 7.00037 102.512 7.00037L102.412 6.90039H102.312C102.312 6.90039 102.212 6.90039 102.112 6.90039C101.912 6.90039 101.712 7.10038 101.612 7.30038C101.412 8.30038 101.112 9.60038 100.912 10.8004C100.712 11.7004 100.612 12.5004 100.412 13.2004C100.312 13.4004 100.312 13.7004 100.212 13.9004L98.9121 19.8004C98.9121 19.9004 98.9121 20.1004 99.0121 20.2004C99.1121 20.3004 99.2121 20.4004 99.4121 20.4004L105.512 20.5004C105.712 20.5004 105.812 20.4004 105.912 20.3004C106.012 20.2004 106.012 20.1004 106.012 20.0004C106.212 19.8004 106.212 19.8004 106.212 19.7004C106.212 19.8004 106.212 19.8004 106.212 19.7004ZM100.212 19.3004L100.912 16.0004C100.912 16.0004 100.912 16.1004 100.912 16.2004L101.812 19.3004H100.212ZM102.912 19.3004L101.912 15.9004C101.712 15.1004 101.712 15.0004 101.712 14.9004C101.712 14.8004 101.712 14.8004 101.412 13.8004C101.512 13.4004 101.612 12.9004 101.712 12.4004L102.312 9.40039C102.512 9.90039 102.612 10.5004 102.712 11.1004C102.912 11.9004 103.112 12.7004 103.312 13.4004C103.312 13.5004 103.412 13.6004 103.412 13.7004C103.412 13.8004 103.512 13.9004 103.512 14.0004L105.012 19.3004H102.912Z" fill="#1D1D1B"/>
<path d="M138.912 26.7002L137.512 28.1002H126.412L128.112 26.7002H138.912Z" fill="#28C78E"/>
<path d="M127.412 25.9998L125.612 27.4998L125.412 22.3998L127.212 20.7998L127.412 25.9998Z" fill="#28C78E"/>
<path d="M139.513 25.6998H128.413L128.313 23.2998L128.213 20.2998H139.413L139.513 25.6998Z" fill="#45B7E0"/>
<path d="M140.312 19.7998C140.312 19.4998 140.112 19.2998 139.812 19.2998H127.712C127.612 19.2998 127.412 19.2998 127.312 19.4998L124.612 21.7998C124.512 21.8998 124.412 21.9998 124.412 22.1998L124.612 28.5998C124.612 28.7998 124.712 28.9998 124.912 28.9998C125.012 28.9998 125.012 28.9998 125.112 28.9998H137.612C137.712 28.9998 137.812 28.8998 137.912 28.7998L140.312 26.3998C140.412 26.2998 140.512 26.1998 140.412 26.0998L140.312 19.7998ZM125.412 22.3998L127.212 20.7998L127.312 25.8998L125.512 27.4998L125.412 22.3998ZM137.512 28.0998H126.512L128.112 26.6998H138.912L137.512 28.0998ZM128.412 25.6998L128.312 23.2998L128.212 20.2998H139.412L139.612 25.6998H128.412Z" fill="#1D1D1B"/>
<path d="M159.513 46.9998L158.013 48.1998L150.312 47.9998L151.812 46.7998L159.513 46.9998Z" fill="#28C78E"/>
<path d="M151.212 46.0004L149.412 47.4004L149.312 14.3004L151.013 12.9004L151.212 46.0004Z" fill="#28C78E"/>
<path d="M160.413 46.1004L152.213 45.8004L152.013 12.4004L160.213 12.7004L160.413 46.1004Z" fill="#45B7E0"/>
<path d="M161.213 12.2004C161.213 11.9004 161.013 11.7004 160.713 11.7004L151.513 11.4004H151.413H151.313H151.213C151.213 11.4004 151.113 11.4004 151.113 11.5004L148.413 13.6004C148.313 13.7004 148.213 13.8004 148.213 14.0004L148.413 48.3004C148.413 48.4004 148.413 48.4004 148.413 48.4004C148.413 48.4004 148.413 48.5004 148.513 48.5004C148.513 48.5004 148.513 48.6004 148.613 48.6004L148.713 48.7004H148.813H148.913L158.113 49.0004C158.213 49.0004 158.313 49.0004 158.413 48.9004L161.113 46.7004C161.213 46.6004 161.313 46.5004 161.313 46.3004L161.213 12.2004ZM160.213 12.7004L160.413 46.1004L152.213 45.8004L152.013 12.4004L160.213 12.7004ZM149.313 14.3004L151.013 12.9004L151.213 46.0004L149.513 47.4004L149.313 14.3004ZM158.013 48.2004L150.313 48.0004L151.813 46.8004L159.413 47.0004L158.013 48.2004Z" fill="#1D1D1B"/>
<path d="M192.513 8.99979L191.013 10.0998L185.513 9.89981V8.7998L192.513 8.99979Z" fill="#28C78E"/>
<path d="M174.312 8.49979L172.812 9.59979L165.612 9.49979L166.312 8.89981L167.112 8.2998L174.312 8.49979Z" fill="#28C78E"/>
<path d="M166.412 7.60001L164.712 8.90002L164.612 2.80002L166.312 1.5L166.412 7.60001Z" fill="#28C78E"/>
<path d="M194.313 1.20001C194.313 0.900012 194.113 0.700012 193.813 0.700012L166.813 0C166.713 0 166.713 0 166.613 0C166.513 0 166.513 6.10203e-06 166.413 0.100006L163.713 2.10001C163.613 2.20001 163.513 2.3 163.513 2.5L163.613 9.80002C163.613 9.90002 163.713 10.1 163.813 10.2C163.813 10.2 163.813 10.2 163.913 10.3C163.913 10.3 163.913 10.3 164.013 10.3H164.113L172.413 10.5L172.713 35.5C172.713 35.5 172.713 35.6 172.713 35.7C172.813 35.9 172.913 36 173.213 36L182.413 36.2C182.513 36.2 182.613 36.2 182.713 36.1L185.413 34C185.413 34 185.413 33.9 185.513 33.9C185.513 33.8 185.613 33.7 185.513 33.7L185.213 10.8L190.913 11C191.013 11 191.113 11 191.213 10.9L193.913 8.80002C193.913 8.80002 193.913 8.80001 193.913 8.70001C193.913 8.70001 194.013 8.6 194.013 8.5C194.013 8.4 194.013 8.40002 194.013 8.30002L194.313 1.20001ZM164.613 2.80002L166.413 1.5L166.513 7.60001L164.713 8.90002L164.613 2.80002ZM172.813 9.60001L165.613 9.40002L166.413 8.80002L167.113 8.30002L174.313 8.5L172.813 9.60001ZM173.513 10.4L175.313 9.10001L175.613 33.4L173.813 34.7L173.513 10.4ZM182.413 35.4L174.713 35.2L176.213 34.1L183.913 34.3L182.413 35.4ZM184.813 33.3L176.513 33.1L176.213 8.10001V8V7.90002L176.113 7.80002C176.113 7.80002 176.113 7.80002 176.013 7.80002C176.013 7.80002 176.013 7.80002 175.913 7.80002H175.813L167.513 7.60001V4.5L167.413 1.20001L193.413 1.90002L193.513 8.30002L185.113 8.10001C185.013 8.10001 184.913 8.10001 184.813 8.20001C184.813 8.20001 184.713 8.30002 184.713 8.40002C184.713 8.50002 184.713 8.50001 184.713 8.60001L184.813 33.3ZM191.013 10.1L185.513 9.90002V8.80002L192.513 9L191.013 10.1Z" fill="#1D1D1B"/>
<path d="M175.513 33.3L173.813 34.6L173.513 10.4L175.213 9L175.513 33.3Z" fill="#28C78E"/>
<path d="M183.913 34.2L182.413 35.4L174.713 35.2L176.213 34L183.913 34.2Z" fill="#28C78E"/>
<path d="M184.412 8.3002L184.712 33.3002L176.412 33.1002L176.112 8.10019V8.00018V7.90021L176.013 7.8002C176.013 7.8002 176.012 7.8002 175.912 7.8002C175.912 7.8002 175.913 7.8002 175.812 7.8002H175.712L167.412 7.60019V4.50017L167.312 1.2002L193.312 1.90021L193.412 8.3002L185.013 8.10019C184.913 8.10019 184.812 8.1002 184.712 8.2002C184.712 8.2002 184.612 8.30021 184.612 8.40021C184.512 8.20021 184.412 8.2002 184.412 8.3002Z" fill="#45B7E0"/>
<path d="M229.613 15.0998C229.413 15.2998 229.213 15.4998 228.913 15.5998C228.713 15.6998 228.613 15.7998 228.413 15.8998C228.413 15.8998 228.313 15.8998 228.213 15.9998C228.013 16.0998 227.813 16.0998 227.613 16.0998C227.513 16.0998 227.513 16.0998 227.413 16.0998C227.313 16.0998 227.313 16.0998 227.213 16.0998C227.013 16.0998 226.813 16.0998 226.713 16.0998C226.613 16.0998 226.513 16.0998 226.313 15.9998C226.213 15.9998 226.113 15.8998 225.913 15.8998C225.813 15.8998 225.713 15.7998 225.613 15.7998C225.513 15.7998 225.413 15.6998 225.313 15.6998C225.313 15.6998 225.313 15.6998 225.213 15.6998C225.113 15.6998 225.013 15.5998 225.013 15.5998C224.913 15.4998 224.813 15.3998 224.613 15.2998C224.513 15.1998 224.313 15.0998 224.213 14.8998C224.013 14.6998 223.913 14.5998 223.813 14.3998L223.713 14.2998L223.613 14.1998L223.513 14.0998C223.513 14.0998 223.413 13.9998 223.413 13.8998C223.313 13.7998 223.313 13.6998 223.313 13.5998C223.213 13.3998 223.113 13.1998 223.113 12.9998C223.013 12.6998 222.913 12.3998 222.913 12.0998C222.913 11.9998 222.913 11.7998 222.913 11.6998C222.813 9.9998 223.513 8.39979 224.613 7.49979C224.813 7.39979 225.013 7.19979 225.213 7.09979C225.513 6.89979 225.913 6.7998 226.213 6.7998C226.313 6.7998 226.413 6.7998 226.613 6.7998H226.813C227.213 6.7998 227.513 6.89979 227.913 6.99979C228.113 7.09979 228.413 7.1998 228.613 7.2998C228.813 7.3998 229.013 7.49979 229.113 7.59979C229.613 7.89979 229.913 8.39981 230.313 8.89981C230.513 9.09981 230.613 9.39979 230.713 9.59979C230.913 9.99979 231.013 10.3998 231.113 10.7998C231.113 10.8998 231.113 11.0998 231.113 11.1998C231.113 12.7998 230.613 14.1998 229.613 15.0998Z" fill="#28C78E"/>
<path d="M224.912 16.7004C224.112 16.8004 223.312 16.6004 222.612 16.1004C222.512 16.0004 222.312 15.9004 222.212 15.8004C221.912 15.6004 221.712 15.3004 221.512 15.0004C221.112 14.4004 220.812 13.7004 220.712 12.9004C220.512 11.4004 220.812 10.2004 221.512 9.20038C221.912 8.70038 222.312 8.30039 222.812 7.90039C222.612 8.20039 222.412 8.60037 222.212 9.00037C221.612 10.5004 221.712 12.3004 222.412 13.9004C222.612 14.3004 222.812 14.6004 223.012 14.9004C223.012 14.9004 223.012 14.9004 223.012 15.0004C223.512 15.7004 224.212 16.3004 224.912 16.7004Z" fill="#45B7E0"/>
<path d="M209.512 37.1004C209.512 37.1004 209.412 37.1004 209.312 37.1004C209.212 37.1004 209.212 37.1004 209.112 37.1004C209.012 37.1004 208.912 37.1004 208.812 37.0004C208.712 37.0004 208.612 36.9004 208.512 36.9004C208.412 36.9004 208.312 36.8004 208.212 36.8004C208.112 36.8004 208.012 36.7004 207.812 36.6004C207.812 36.6004 207.812 36.6004 207.712 36.6004C207.612 36.6004 207.512 36.5004 207.412 36.4004C207.412 36.4004 207.312 36.4004 207.312 36.3004C207.212 36.2004 207.112 36.2004 207.012 36.1004C206.912 36.0004 206.812 35.9004 206.712 35.8004C206.512 35.6004 206.312 35.4004 206.112 35.2004C205.912 35.0004 205.712 34.7004 205.512 34.4004C205.412 34.3004 205.312 34.1004 205.212 33.9004C205.112 33.7004 205.012 33.6004 205.012 33.4004C204.912 33.2004 204.912 33.1004 204.812 32.9004C204.712 32.6004 204.612 32.2004 204.512 31.9004C204.312 30.3004 204.512 28.6004 205.512 27.3004C205.612 27.1004 205.812 26.9004 205.912 26.8004C206.012 26.7004 206.112 26.6004 206.212 26.5004C206.312 26.4004 206.512 26.3004 206.612 26.2004C206.712 26.1004 206.912 26.0004 207.012 25.9004C206.012 27.2004 205.512 29.0004 205.712 30.9004C205.712 31.1004 205.712 31.3004 205.812 31.5004C205.912 32.3004 206.212 33.1004 206.512 33.8004C206.612 34.0004 206.712 34.2004 206.812 34.3004C207.212 35.0004 207.712 35.6004 208.212 36.1004C208.512 36.4004 208.812 36.6004 209.212 36.8004C209.212 37.0004 209.312 37.0004 209.512 37.1004Z" fill="#28C78E"/>
<path d="M241.913 40.4996C241.913 40.6996 241.913 40.8996 241.913 41.0996C241.913 41.1996 241.913 41.1996 241.913 41.2996C241.913 41.4996 241.913 41.6996 241.813 41.8996C241.813 42.0996 241.713 42.2996 241.713 42.4996C241.713 42.6996 241.613 42.7996 241.613 42.9996C241.313 43.8996 240.913 44.5996 240.313 45.2996C240.213 45.3996 240.113 45.4996 240.113 45.5996C239.613 46.0996 239.113 46.4996 238.413 46.6996C238.313 46.6996 238.213 46.7996 238.113 46.7996C238.013 46.7996 237.913 46.8996 237.813 46.8996H237.713C237.613 46.8996 237.413 46.9996 237.313 46.9996C237.213 46.9996 237.113 46.9996 237.113 46.9996C237.013 46.9996 236.913 46.9996 236.913 46.9996C236.013 46.9996 235.113 46.7996 234.413 46.4996C233.913 46.1996 233.413 45.8996 232.913 45.4996C232.713 45.3996 232.613 45.1996 232.513 44.9996C232.213 44.6996 232.013 44.2996 231.713 43.9996C231.613 43.8996 231.513 43.6996 231.513 43.5996C231.313 43.1996 231.213 42.8996 231.113 42.4996C231.013 42.3996 231.013 42.1996 231.013 42.0996C230.913 41.7996 230.913 41.5996 230.813 41.2996C230.813 41.0996 230.813 40.8996 230.713 40.6996C230.713 40.0996 230.713 39.4996 230.813 38.8996C231.113 37.1996 231.913 35.6996 233.113 34.6996C233.413 34.4996 233.713 34.2996 234.013 34.0996C234.113 33.9996 234.213 33.9996 234.313 33.8996C234.513 33.7996 234.813 33.6996 235.013 33.6996C235.113 33.6996 235.313 33.5996 235.413 33.5996C235.513 33.5996 235.613 33.5996 235.713 33.5996C235.813 33.5996 235.913 33.5996 236.013 33.5996H236.413C236.613 33.5996 236.813 33.5996 236.913 33.5996C237.113 33.5996 237.213 33.6996 237.413 33.6996C237.613 33.6996 237.713 33.7996 237.913 33.8996C238.113 33.8996 238.213 33.9996 238.413 34.0996C238.613 34.1996 238.713 34.2996 238.913 34.2996C239.113 34.3996 239.213 34.4996 239.313 34.5996C239.713 34.8996 240.113 35.2996 240.513 35.6996C240.613 35.7996 240.713 35.9996 240.813 36.0996C241.213 36.5996 241.513 37.1996 241.713 37.7996C241.813 37.8996 241.813 38.0996 241.913 38.1996C242.013 38.5996 242.113 38.9996 242.213 39.3996C242.213 39.4996 242.213 39.5996 242.213 39.6996C242.213 39.6996 242.213 39.7996 242.213 39.8996C242.213 39.8996 242.213 39.9996 242.213 40.0996V40.1996V40.2996C241.913 40.1996 241.913 40.2996 241.913 40.4996Z" fill="#28C78E"/>
<path d="M243.112 39.7996C243.112 39.5996 243.112 39.2996 243.012 39.0996C242.412 35.1996 239.412 32.1996 235.912 32.1996C235.812 32.1996 235.712 32.1996 235.612 32.1996C235.412 32.1996 234.412 32.2996 234.112 32.3996C231.812 32.8996 229.312 33.8996 227.612 36.1996C226.812 37.1996 226.412 38.4996 226.312 39.8996L217.112 34.9996C217.912 33.6996 218.412 31.9996 218.312 30.1996C218.312 29.9996 218.312 29.7996 218.212 29.5996C217.912 27.4996 216.812 25.7996 215.412 24.6996L221.612 16.5996C221.712 16.6996 221.912 16.7996 222.112 16.8996C222.912 17.3996 223.712 17.6996 224.612 17.6996C224.912 17.6996 225.812 17.5996 225.912 17.5996C226.512 17.4996 228.112 17.0996 228.312 16.9996C230.712 16.3996 232.412 13.8996 232.212 11.0996C232.212 10.8996 232.212 10.7996 232.112 10.5996C231.712 7.69961 229.712 5.79961 226.912 5.59961C226.712 5.59961 226.312 5.59961 226.012 5.59961C224.012 5.99961 222.012 6.5996 220.612 8.4996C219.812 9.6996 219.412 11.1996 219.612 12.8996C219.812 13.9996 220.212 14.8996 220.812 15.6996L214.412 23.9996C213.612 23.5996 212.812 23.3996 211.912 23.3996C211.512 23.3996 210.512 23.3996 210.012 23.4996C208.112 23.8996 205.812 24.7996 204.512 26.5996C203.412 28.0996 203.012 29.8996 203.312 31.9996C203.812 35.3996 206.812 38.0996 209.812 38.0996C210.112 38.0996 211.112 37.8996 211.412 37.8996C212.012 37.7996 213.412 37.4996 213.512 37.4996C214.612 37.1996 215.512 36.5996 216.312 35.7996L226.112 40.9996C226.112 41.3996 226.112 41.7996 226.212 42.0996C226.812 45.8996 229.712 48.5996 233.012 48.5996C233.412 48.5996 234.612 48.3996 234.712 48.3996C234.712 48.3996 237.712 47.7996 237.812 47.6996C241.112 47.0996 243.412 43.6996 243.112 39.7996ZM224.612 7.4996C224.812 7.3996 225.012 7.19961 225.212 7.09961C225.512 6.89961 225.912 6.79962 226.212 6.79962C226.312 6.79962 226.412 6.79962 226.612 6.79962H226.812C227.212 6.79962 227.512 6.8996 227.912 6.9996C228.112 7.0996 228.412 7.19962 228.612 7.29962C228.812 7.39962 229.012 7.49961 229.112 7.59961C229.612 7.89961 229.912 8.39963 230.312 8.89963C230.512 9.09963 230.612 9.39961 230.712 9.59961C230.912 9.99961 231.012 10.3996 231.112 10.7996C231.112 10.8996 231.112 11.0996 231.112 11.1996C231.212 12.6996 230.612 14.1996 229.712 15.0996C229.512 15.2996 229.312 15.4996 229.012 15.5996C228.812 15.6996 228.712 15.7996 228.512 15.8996C228.512 15.8996 228.412 15.8996 228.312 15.9996C228.112 16.0996 227.912 16.0996 227.712 16.1996C227.612 16.1996 227.612 16.1996 227.512 16.1996C227.412 16.1996 227.412 16.1996 227.312 16.1996C227.212 16.1996 227.212 16.1996 227.112 16.1996C227.012 16.1996 226.912 16.1996 226.712 16.1996C226.612 16.1996 226.512 16.1996 226.312 16.0996C226.212 16.0996 226.112 16.0996 225.912 15.9996C225.812 15.9996 225.712 15.8996 225.612 15.8996C225.512 15.8996 225.412 15.7996 225.312 15.7996C225.312 15.7996 225.312 15.7996 225.212 15.7996C225.112 15.7996 225.012 15.6996 225.012 15.6996C224.912 15.5996 224.812 15.4996 224.612 15.3996C224.512 15.2996 224.312 15.1996 224.212 14.9996C224.112 14.8996 224.012 14.7996 224.012 14.7996C223.912 14.6996 223.912 14.5996 223.812 14.4996L223.712 14.3996L223.612 14.2996L223.512 14.1996C223.512 14.1996 223.412 14.0996 223.412 13.9996C223.312 13.8996 223.312 13.7996 223.312 13.6996C223.212 13.4996 223.112 13.2996 223.112 13.0996C223.012 12.7996 222.912 12.4996 222.912 12.1996C222.912 12.0996 222.912 11.8996 222.912 11.7996C222.712 9.99962 223.412 8.3996 224.612 7.4996ZM220.612 12.8996C220.412 11.3996 220.712 10.1996 221.412 9.19962C221.812 8.69962 222.212 8.29963 222.712 7.89963C222.512 8.19963 222.312 8.5996 222.112 8.9996C221.512 10.4996 221.612 12.2996 222.312 13.8996C222.512 14.2996 222.712 14.5996 222.912 14.8996C222.912 14.8996 222.912 14.8996 222.912 14.9996C223.412 15.7996 224.112 16.3996 224.912 16.7996C224.112 16.8996 223.312 16.6996 222.612 16.1996C222.512 16.0996 222.312 15.9996 222.212 15.8996C221.912 15.6996 221.712 15.3996 221.512 15.0996C221.012 14.3996 220.712 13.5996 220.612 12.8996ZM209.312 37.0996C209.212 37.0996 209.212 37.0996 209.112 37.0996C209.012 37.0996 208.912 37.0996 208.812 36.9996C208.712 36.9996 208.612 36.8996 208.512 36.8996C208.412 36.8996 208.312 36.7996 208.212 36.7996C208.112 36.7996 207.912 36.6996 207.812 36.5996C207.812 36.5996 207.812 36.5996 207.712 36.5996C207.612 36.5996 207.512 36.4996 207.412 36.3996C207.412 36.3996 207.312 36.3996 207.312 36.2996C207.212 36.1996 207.112 36.1996 207.012 36.0996C206.912 35.9996 206.812 35.8996 206.712 35.7996C206.512 35.5996 206.312 35.3996 206.112 35.1996C205.912 34.9996 205.712 34.6996 205.512 34.3996C205.412 34.2996 205.312 34.0996 205.212 33.8996C205.112 33.6996 205.012 33.5996 205.012 33.3996C204.912 33.1996 204.912 33.0996 204.812 32.8996C204.712 32.5996 204.612 32.1996 204.512 31.8996C204.312 30.2996 204.512 28.5996 205.512 27.2996C205.612 27.0996 205.812 26.8996 205.912 26.7996C206.012 26.6996 206.112 26.5996 206.212 26.4996C206.312 26.3996 206.512 26.2996 206.612 26.1996C206.712 26.0996 206.912 25.9996 207.012 25.8996C206.012 27.1996 205.512 28.9996 205.712 30.8996C205.712 31.0996 205.712 31.2996 205.812 31.4996C205.912 32.2996 206.212 33.0996 206.512 33.7996C206.612 33.9996 206.712 34.1996 206.812 34.2996C207.212 34.9996 207.712 35.5996 208.212 36.0996C208.512 36.3996 208.812 36.5996 209.212 36.7996C209.312 36.8996 209.412 36.8996 209.512 36.9996C209.412 37.0996 209.412 37.0996 209.312 37.0996ZM216.912 32.3996C216.812 32.6996 216.812 32.9996 216.612 33.1996C216.512 33.2996 216.512 33.4996 216.412 33.5996C216.312 33.8996 216.112 34.0996 215.912 34.3996C215.712 34.6996 215.412 34.9996 215.212 35.1996C215.212 35.1996 215.112 35.1996 215.112 35.2996C215.012 35.3996 215.012 35.3996 214.912 35.4996C214.812 35.5996 214.612 35.6996 214.512 35.7996C214.412 35.8996 214.312 35.8996 214.212 35.9996C213.912 36.0996 213.712 36.1996 213.412 36.2996C213.312 36.2996 213.212 36.3996 213.012 36.3996C212.912 36.3996 212.712 36.3996 212.612 36.4996C212.312 36.4996 212.112 36.4996 211.812 36.4996C211.812 36.4996 211.812 36.4996 211.712 36.4996C211.412 36.4996 211.212 36.3996 210.912 36.2996H210.812C210.612 36.1996 210.312 36.0996 210.012 35.9996C209.612 35.7996 209.312 35.5996 209.012 35.2996C208.912 35.1996 208.812 35.0996 208.712 34.9996C208.512 34.7996 208.312 34.5996 208.112 34.2996C208.012 34.1996 207.912 33.9996 207.812 33.8996C207.612 33.5996 207.512 33.2996 207.312 32.9996C207.212 32.7996 207.112 32.5996 207.112 32.2996C207.012 31.9996 206.912 31.7996 206.912 31.4996V31.3996C206.912 31.1996 206.912 30.9996 206.812 30.7996C206.812 30.3996 206.812 29.9996 206.812 29.5996C206.812 28.9996 206.912 28.2996 207.212 27.6996C207.412 27.1996 207.712 26.7996 208.112 26.3996C208.512 25.8996 208.912 25.4996 209.412 25.1996C209.512 25.0996 209.712 24.9996 209.812 24.9996C209.912 24.8996 210.112 24.8996 210.212 24.7996C210.512 24.6996 210.712 24.5996 211.012 24.5996C211.012 24.5996 211.012 24.5996 211.112 24.5996C211.212 24.5996 211.212 24.5996 211.312 24.5996H211.412C211.612 24.5996 211.712 24.5996 211.912 24.5996C212.012 24.5996 212.112 24.5996 212.212 24.5996C212.512 24.5996 212.912 24.6996 213.212 24.7996C213.312 24.7996 213.412 24.8996 213.412 24.8996C213.512 24.8996 213.612 24.9996 213.612 24.9996C213.812 25.0996 213.912 25.0996 214.112 25.1996C214.112 25.1996 214.212 25.1996 214.212 25.2996C214.312 25.3996 214.312 25.3996 214.412 25.4996C214.512 25.5996 214.612 25.6996 214.712 25.7996C214.812 25.8996 214.912 25.8996 214.912 25.9996C215.112 26.0996 215.212 26.2996 215.312 26.4996C215.412 26.5996 215.512 26.6996 215.612 26.7996C215.812 27.0996 216.012 27.4996 216.212 27.7996C216.312 27.9996 216.412 28.1996 216.412 28.3996C216.512 28.5996 216.512 28.6996 216.512 28.8996C216.612 29.0996 216.612 29.3996 216.712 29.6996C216.712 29.8996 216.712 30.0996 216.812 30.1996C217.112 31.0996 217.012 31.6996 216.912 32.3996ZM233.412 47.6996C233.412 47.6996 233.312 47.6996 233.412 47.6996C233.212 47.6996 233.112 47.6996 233.012 47.6996C232.812 47.6996 232.512 47.6996 232.312 47.5996C232.212 47.5996 232.212 47.5996 232.112 47.5996C231.912 47.5996 231.712 47.4996 231.512 47.3996C231.312 47.3996 231.212 47.2996 231.012 47.1996C230.712 47.0996 230.412 46.8996 230.112 46.6996C229.812 46.4996 229.512 46.2996 229.312 45.9996C228.312 44.9996 227.512 43.5996 227.312 41.9996C227.312 41.8996 227.312 41.6996 227.312 41.5996C227.312 41.1996 227.312 40.7996 227.312 40.3996C227.312 40.1996 227.312 40.0996 227.312 39.8996C227.312 39.7996 227.312 39.6996 227.312 39.5996C227.312 39.4996 227.312 39.3996 227.312 39.2996C227.312 39.1996 227.412 38.9996 227.412 38.8996C227.412 38.7996 227.512 38.6996 227.512 38.5996C227.512 38.4996 227.612 38.3996 227.612 38.1996C227.612 38.0996 227.712 37.9996 227.712 37.8996C227.712 37.7996 227.812 37.6996 227.812 37.5996C227.912 37.4996 227.912 37.2996 228.012 37.1996C228.112 37.0996 228.212 36.8996 228.312 36.7996C228.412 36.6996 228.512 36.5996 228.512 36.4996C228.612 36.3996 228.712 36.2996 228.812 36.1996C228.912 36.0996 229.012 35.9996 229.112 35.8996C229.212 35.7996 229.312 35.6996 229.412 35.5996C229.712 35.2996 230.012 35.0996 230.312 34.8996C230.412 34.7996 230.512 34.6996 230.612 34.6996C229.412 36.1996 228.812 38.2996 228.912 40.4996C228.912 40.6996 228.912 40.9996 229.012 41.1996C229.012 41.2996 229.012 41.3996 229.112 41.4996C229.212 41.9996 229.312 42.4996 229.512 42.8996C230.312 45.0996 231.812 46.7996 233.712 47.5996C233.712 47.5996 233.512 47.6996 233.412 47.6996ZM241.912 40.9996C241.912 41.2996 241.812 41.5996 241.812 41.7996C241.812 41.9996 241.712 42.1996 241.712 42.3996C241.712 42.5996 241.612 42.6996 241.612 42.8996C241.312 43.7996 240.912 44.4996 240.312 45.1996C240.212 45.2996 240.112 45.3996 240.112 45.4996C239.612 45.9996 239.112 46.3996 238.412 46.5996C238.312 46.5996 238.212 46.6996 238.112 46.6996C238.012 46.6996 237.912 46.7996 237.812 46.7996H237.712C237.612 46.7996 237.412 46.8996 237.312 46.8996C237.212 46.8996 237.112 46.8996 237.112 46.8996C237.012 46.8996 236.912 46.8996 236.912 46.8996C236.812 46.8996 236.712 46.8996 236.612 46.8996C235.812 46.8996 235.012 46.6996 234.312 46.3996C233.812 46.0996 233.312 45.7996 232.812 45.3996C232.612 45.2996 232.512 45.0996 232.412 44.8996C232.112 44.5996 231.912 44.1996 231.612 43.8996C231.512 43.7996 231.412 43.5996 231.412 43.4996C231.212 43.0996 231.112 42.7996 231.012 42.3996C230.912 42.2996 230.912 42.0996 230.912 41.9996C230.812 41.6996 230.812 41.4996 230.712 41.1996C230.712 40.9996 230.712 40.7996 230.612 40.5996C230.612 39.9996 230.612 39.3996 230.712 38.7996C231.012 37.0996 231.812 35.5996 233.012 34.5996C233.312 34.3996 233.612 34.1996 233.912 33.9996C234.012 33.8996 234.112 33.8996 234.212 33.7996C234.412 33.6996 234.712 33.5996 234.912 33.5996C235.012 33.5996 235.212 33.4996 235.312 33.4996C235.412 33.4996 235.512 33.4996 235.612 33.4996C235.712 33.4996 235.812 33.4996 235.912 33.4996C236.012 33.4996 236.112 33.4996 236.312 33.4996C236.512 33.4996 236.712 33.4996 236.812 33.4996C237.012 33.4996 237.112 33.4996 237.312 33.5996C237.512 33.5996 237.612 33.6996 237.812 33.7996C238.012 33.7996 238.112 33.8996 238.312 33.9996C238.512 34.0996 238.612 34.1996 238.812 34.1996C238.912 34.2996 239.112 34.3996 239.212 34.4996C239.612 34.7996 240.012 35.1996 240.412 35.5996C240.512 35.6996 240.612 35.8996 240.712 35.9996C241.112 36.4996 241.412 37.0996 241.612 37.6996C241.712 37.7996 241.712 37.9996 241.812 38.0996C241.912 38.4996 242.012 38.8996 242.112 39.2996C242.112 39.3996 242.112 39.4996 242.112 39.5996C242.112 39.5996 242.112 39.6996 242.112 39.7996C242.112 39.7996 242.112 39.8996 242.112 39.9996V40.0996V40.1996C241.912 40.3996 241.912 40.6996 241.912 40.9996Z" fill="#1D1D1B"/>
<path d="M233.812 47.5998C233.712 47.5998 233.512 47.5998 233.412 47.6998H233.312C233.012 47.6998 232.613 47.6998 232.312 47.6998C232.212 47.6998 232.212 47.6998 232.112 47.6998C231.912 47.6998 231.713 47.5998 231.513 47.4998C231.313 47.4998 231.213 47.3998 231.013 47.2998C230.713 47.1998 230.412 46.9998 230.112 46.7998C229.812 46.5998 229.513 46.3998 229.312 46.0998C228.312 45.0998 227.513 43.6998 227.312 42.0998C227.312 41.9998 227.312 41.7998 227.312 41.6998C227.312 41.2998 227.312 40.8998 227.312 40.4998C227.312 40.2998 227.312 40.1998 227.312 39.9998C227.312 39.8998 227.312 39.7998 227.312 39.6998C227.312 39.5998 227.312 39.4998 227.312 39.3998C227.312 39.2998 227.412 39.0998 227.412 38.9998C227.412 38.8998 227.513 38.7998 227.513 38.6998C227.513 38.5998 227.612 38.4998 227.612 38.2998C227.612 38.1998 227.712 38.0998 227.712 37.9998C227.712 37.8998 227.812 37.7998 227.812 37.6998C227.913 37.5998 228.013 37.3998 228.013 37.2998C228.113 37.1998 228.212 36.9998 228.312 36.8998C228.413 36.7998 228.513 36.6998 228.513 36.5998C228.613 36.4998 228.712 36.3998 228.812 36.2998C228.913 36.1998 229.012 36.0998 229.112 35.9998C229.212 35.8998 229.312 35.7998 229.412 35.6998C229.712 35.3998 230.012 35.1998 230.312 34.9998C230.413 34.8998 230.512 34.8998 230.612 34.7998C229.412 36.2998 228.812 38.3998 228.912 40.5998C228.912 40.7998 228.913 41.0998 229.013 41.2998C229.013 41.3998 229.012 41.4998 229.112 41.5998C229.212 42.0998 229.313 42.5998 229.513 42.9998C230.413 45.0998 231.913 46.7998 233.812 47.5998Z" fill="#45B7E0"/>
<path d="M217.013 30.3C217.013 31 217.013 31.7 216.813 32.3C216.713 32.6 216.613 32.9 216.513 33.1C216.413 33.2 216.413 33.4 216.313 33.5C216.213 33.8 216.013 34 215.813 34.3C215.613 34.6 215.313 34.9 215.113 35.1C215.113 35.1 215.013 35.1 215.013 35.2C214.913 35.3 214.913 35.3 214.813 35.4C214.713 35.5 214.513 35.6 214.413 35.7C214.313 35.8 214.213 35.8 214.113 35.9C213.813 36 213.613 36.1 213.313 36.2C213.213 36.2 213.113 36.3 212.913 36.3C212.813 36.3 212.613 36.3 212.513 36.4C212.213 36.4 212.013 36.4 211.713 36.4C211.713 36.4 211.713 36.4 211.613 36.4C211.313 36.4 211.113 36.3 210.813 36.2H210.713C210.513 36.1 210.213 36 209.913 35.9C209.513 35.7 209.213 35.5 208.913 35.2C208.813 35.1 208.713 35 208.613 34.9C208.413 34.7 208.213 34.5 208.013 34.2C207.913 34.1 207.813 33.9 207.713 33.8C207.513 33.5 207.413 33.2 207.213 32.9C207.113 32.7 207.013 32.5 207.013 32.2C206.913 31.9 206.813 31.7 206.813 31.4V31.3C206.813 31.1 206.813 30.9 206.713 30.7C206.713 30.3 206.713 30 206.713 29.7C206.713 29.6 206.713 29.6 206.713 29.5C206.713 28.9 206.813 28.2 207.113 27.6C207.313 27.1 207.613 26.7 208.013 26.3C208.413 25.8 208.813 25.4 209.313 25.1C209.413 25 209.613 24.9 209.713 24.9C209.813 24.8 210.013 24.8 210.113 24.7C210.413 24.6 210.613 24.5 210.913 24.5C210.913 24.5 210.913 24.5 211.013 24.5C211.113 24.5 211.113 24.5 211.213 24.5H211.313H211.413C211.513 24.5 211.613 24.5 211.813 24.5C211.913 24.5 212.013 24.5 212.113 24.5C212.213 24.5 212.313 24.5 212.513 24.6C212.613 24.6 212.713 24.6 212.813 24.7C212.913 24.7 213.013 24.8 213.113 24.8C213.213 24.8 213.313 24.9 213.313 24.9C213.413 24.9 213.513 25 213.513 25C213.713 25.1 213.813 25.2 214.013 25.2C214.113 25.3 214.213 25.3 214.313 25.4C214.313 25.4 214.313 25.4 214.413 25.4C214.413 25.4 214.513 25.4 214.513 25.5C214.813 25.8 215.113 26 215.413 26.4C215.513 26.5 215.613 26.6 215.713 26.7C215.913 27 216.113 27.4 216.313 27.7C216.413 27.9 216.513 28.1 216.513 28.3C216.613 28.5 216.613 28.6 216.613 28.8C216.713 29 216.713 29.3 216.813 29.6C217.013 30 217.013 30.2 217.013 30.3Z" fill="#45B7E0"/>
</svg>
